<svg width="101" height="100" viewBox="0 0 101 100" fill="none" xmlns="http://www.w3.org/2000/svg">
<g clip-path="url(#clip0_616_8118)">
<path d="M85.5649 68.6652H82.9759C86.136 63.1961 87.8412 56.2012 87.9065 49.8509C88.0099 39.9706 84.2187 30.626 77.2293 23.5359C70.2453 16.4513 60.9633 12.5297 51.0911 12.4916C51.0449 12.4916 50.9959 12.4916 50.947 12.4916C39.4457 12.4916 28.7277 17.7839 21.7383 26.7968L31.2134 27.0089C37.066 27.1394 42.5705 29.4919 46.7098 33.6339L63.7074 50.6315V29.7938H60.3187V26.8022H70.3732V29.7938H66.699V57.8493L44.5939 35.747C41.0013 32.1544 36.2257 30.112 31.1454 29.9977L16.125 29.6605L17.6235 27.4005C25.0617 16.1848 37.5093 9.5 50.947 9.5C50.9986 9.5 51.0503 9.5 51.102 9.5C61.7765 9.54079 71.8118 13.7807 79.3588 21.4364C86.9111 29.0975 91.0096 39.2009 90.8981 49.8836C90.8274 56.7479 88.9835 62.7528 85.5649 68.6652Z" fill="white"/>
<path d="M49.9521 90.8603C49.9004 90.8603 49.8487 90.8603 49.7971 90.8603C39.1226 90.8195 29.0872 86.5796 21.5403 78.9239C13.9879 71.2627 9.88942 61.1621 9.9982 50.4794C10.0689 43.6151 11.9128 37.6102 15.3314 31.6978H17.9204C14.7603 37.1642 13.0551 44.1617 12.9898 50.5121C12.8864 60.3924 16.6776 69.737 23.667 76.827C30.651 83.9116 39.933 87.8333 49.8052 87.8714C49.8514 87.8714 49.9004 87.8714 49.9493 87.8714C61.4506 87.8714 72.1686 82.579 79.158 73.5662L69.6829 73.3541C63.8303 73.2236 58.3258 70.8711 54.1865 66.7291L37.1889 49.7315V70.5665H40.5776V73.5581H30.5231V70.5665H34.1973V42.5109L56.2997 64.6133C59.8923 68.2059 64.6679 70.2483 69.7481 70.3625L84.7686 70.6998L83.2701 72.9598C75.8319 84.1754 63.3843 90.8603 49.9466 90.8603H49.9521Z" fill="white"/>
</g>
<defs>
<clipPath id="clip0_616_8118">
<rect width="80.9004" height="81.36" fill="white" transform="translate(10 9.5)"/>
</clipPath>
</defs>
</svg>
