<svg width="101" height="100" viewBox="0 0 101 100" fill="none" xmlns="http://www.w3.org/2000/svg">
<g clip-path="url(#clip0_616_8083)">
<path d="M74.7957 36.4218C74.7957 45.1515 72.6889 51.8492 68.4753 56.5151C66.2189 59.0139 63.3036 60.849 60.1491 61.9943C57.6161 62.9151 54.5999 63.1656 53.5668 66.1444C52.9145 68.0283 52.9942 70.1188 53.7686 71.9556C54.7203 74.2087 56.9556 75.8812 58.2733 77.9261C58.8753 78.8599 59.295 79.906 59.4788 81.0025C59.5472 81.4092 59.5829 81.8224 59.5895 82.2356C59.6139 84.1342 58.968 86.0034 57.782 87.4855C54.3786 91.7397 46.6071 91.7218 43.2184 87.4855C41.0889 84.824 40.8757 81.0887 42.5644 78.1441C43.6398 76.2683 45.3528 74.8806 46.5583 73.0992C47.9347 71.0657 48.2373 68.4659 47.432 66.1444C46.3989 63.1656 43.3827 62.9151 40.8497 61.9943C37.6969 60.849 34.7799 59.0123 32.5235 56.5151C28.3099 51.8492 26.2031 45.1515 26.2031 36.4218C26.2031 27.6921 28.3099 20.9959 32.5235 16.3285C36.737 11.6627 42.7304 9.32812 50.5002 9.32812C58.2701 9.32812 64.2634 11.6627 68.4753 16.3285C72.6889 20.9959 74.7957 27.6937 74.7957 36.4218ZM38.1638 36.4218C38.1638 41.9726 39.2098 46.2236 41.3036 49.1747C43.3974 52.1274 46.4607 53.603 50.5002 53.603C54.5397 53.603 57.5868 52.1274 59.6578 49.1747C61.7255 46.2236 62.7602 41.9726 62.7602 36.4218C62.7602 30.8709 61.7255 26.6346 59.6578 23.7063C57.5868 20.7812 54.5364 19.317 50.5002 19.317C46.464 19.317 43.3974 20.7812 41.3036 23.7063C39.2098 26.633 38.1638 30.8709 38.1638 36.4218Z" fill="url(#paint0_linear_616_8083)"/>
</g>
<defs>
<linearGradient id="paint0_linear_616_8083" x1="26.3707" y1="70.7029" x2="74.6297" y2="22.4455" gradientUnits="userSpaceOnUse">
<stop stop-color="#0000FF"/>
<stop offset="0.1" stop-color="#0D05FF"/>
<stop offset="0.29" stop-color="#2F12FF"/>
<stop offset="0.55" stop-color="#6728FF"/>
<stop offset="0.86" stop-color="#B346FF"/>
<stop offset="1" stop-color="#D855FF"/>
</linearGradient>
<clipPath id="clip0_616_8083">
<rect width="81.3428" height="81.3428" fill="white" transform="translate(9.82812 9.32812)"/>
</clipPath>
</defs>
</svg>
