<svg width="101" height="100" viewBox="0 0 101 100" fill="none" xmlns="http://www.w3.org/2000/svg">
<path fill-rule="evenodd" clip-rule="evenodd" d="M50.4976 6.34202L69.4014 17.257L88.3051 28.1706V71.8286L69.4014 82.7422L50.4976 93.6572L31.5935 82.7422L12.6895 71.8286V49.9996V28.1706L31.5935 17.257L50.4976 6.34202Z" fill="#FF6600"/>
<path fill-rule="evenodd" clip-rule="evenodd" d="M50.4969 29.0511L60.9705 39.5256L71.445 49.9992L60.9705 60.4727L50.4969 70.9473L40.0234 60.4727L29.5488 49.9992L40.0234 39.5256L50.4969 29.0511Z" fill="#FF9600"/>
<path fill-rule="evenodd" clip-rule="evenodd" d="M12.6895 28.171L50.4976 29.0519L29.5495 50L12.6895 28.171Z" fill="#FFB100"/>
<path fill-rule="evenodd" clip-rule="evenodd" d="M12.6895 71.8281L50.4976 70.9472L29.5495 49.9991L12.6895 71.8281Z" fill="#FF6300"/>
<path fill-rule="evenodd" clip-rule="evenodd" d="M12.6895 28.1702V71.8281L29.5495 49.9991L12.6895 28.1702Z" fill="#FF8300"/>
<path fill-rule="evenodd" clip-rule="evenodd" d="M88.3059 28.171L50.498 29.0519L71.4461 50L88.3059 28.171Z" fill="#FFB100"/>
<path fill-rule="evenodd" clip-rule="evenodd" d="M88.3059 71.8281L50.498 70.9472L71.4461 49.9991L88.3059 71.8281Z" fill="#E65900"/>
<path fill-rule="evenodd" clip-rule="evenodd" d="M88.3051 28.1702V71.8281L71.4453 49.9991L88.3051 28.1702Z" fill="#FF8300"/>
<path fill-rule="evenodd" clip-rule="evenodd" d="M12.6895 28.1709L50.4976 29.0518V6.34225L12.6895 28.1709Z" fill="#FFCC00"/>
<path fill-rule="evenodd" clip-rule="evenodd" d="M88.3059 28.1709L50.498 29.0518V6.34225L88.3059 28.1709Z" fill="#FFE331"/>
<path fill-rule="evenodd" clip-rule="evenodd" d="M12.6895 71.8286L50.4976 70.9477V93.6572L12.6895 71.8286Z" fill="#BA1200"/>
<path fill-rule="evenodd" clip-rule="evenodd" d="M88.3059 71.8286L50.498 70.9477V93.6572L88.3059 71.8286Z" fill="#E63000"/>
</svg>
